# xmcd
#
# Track frame offsets: 
#        150
#        23329
#        46623
#        67267
#        90811
#        118175
#        142773
#        156971
#        180437
#        214275
#        241596
#
# Disc length: 3741 seconds
#
# Revision: 3
# Processed by: cddbd v1.5.2PL0 Copyright (c) Steve Scherf et al.
# Submitted via: ExactAudioCopy v1.0b3
#
DISCID=800e9b0b
DTITLE=Ross Daly and Mitsos Stavrakakis - Echo Of Time
DYEAR=2003
DGENRE=Folk
TTITLE0=E' TAKSIDIARI LOGISME
TTITLE1=EROTAS SOU
TTITLE2=KRIMA STI MILIA
TTITLE3=SKOPOS TOU TZEGA
TTITLE4=THALASSA MAVRI
TTITLE5=TSI THYMISIS T' ACHNO
TTITLE6=EROTOKRITOS
TTITLE7=ESVISAN TA ONEIRA
TTITLE8=PINO KRASI KAI DEN METHO
TTITLE9=TO AXI MOU NA SOU GENEI
TTITLE10=ILIE MOY KOSMOGYREFTI
EXTD=YEAR: 2003
EXTT0=
EXTT1=
EXTT2=
EXTT3=
EXTT4=
EXTT5=
EXTT6=
EXTT7=
EXTT8=
EXTT9=
EXTT10=
PLAYORDER=
